<svg xmlns="http://www.w3.org/2000/svg" width="169.861" height="60.565" viewBox="0 0 169.861 60.565">
  <g id="instalogo_white" transform="translate(12403 -4469.025)">
    <g id="instalogo" transform="translate(-12424.598 4276.562)">
      <g id="Layer_2" data-name="Layer 2" transform="translate(21.597 192.463)">
        <path id="Path_14" data-name="Path 14" d="M129.874,198.094h-.07a.68.68,0,0,1-.546-.192.482.482,0,0,0-.581-.087l.093.169a1.692,1.692,0,0,1-.215-.041,3.072,3.072,0,0,0-.477-.162.762.762,0,0,0-.454.041,10.582,10.582,0,0,0-.97.651.279.279,0,0,0-.1.146l.256-.123a1.638,1.638,0,0,1,.262-.093c.186-.041.256,0,.267.2a2.776,2.776,0,0,1,0,.32v.372a.662.662,0,0,0-.1.139c-.052.146-.082.3-.146.436a1.163,1.163,0,0,0,0,1.122,1.743,1.743,0,0,1,.2.651c0,.139.146.267.221.4h.041l-.18-.629.511.79a.2.2,0,0,1,.029.1.581.581,0,0,0,.4.524,10.929,10.929,0,0,0,1.116.419.866.866,0,0,1,.442.326,1.991,1.991,0,0,0,.506.326.116.116,0,0,0,.087,0c.151-.064.308-.052.372.082a.582.582,0,0,1,0,.36,2.224,2.224,0,0,1-.192.331.709.709,0,0,0,.1.883,1.04,1.04,0,0,1,.151.192,1.467,1.467,0,0,0,.581.61.465.465,0,0,1,.162.581,6.519,6.519,0,0,1-.326.826,1.342,1.342,0,0,0-.139.651,3.14,3.14,0,0,0,.064.354,5.725,5.725,0,1,1,.215-.041,1.691,1.691,0,0,1,.622-.733,4.244,4.244,0,0,0,.895-.639,6.608,6.608,0,0,0,1.715-2.243,2.082,2.082,0,0,0,.082-.279c.035-.18,0-.279-.186-.331a3.726,3.726,0,0,0-.524-.087H133.8a.2.2,0,0,1-.21-.2c0-.256-.174-.349-.395-.413a4.19,4.19,0,0,1-.767-.308.872.872,0,0,0-1.093.075.814.814,0,0,1-.814.186.454.454,0,0,1-.372-.419c-.041-.314-.139-.419-.477-.511a1.531,1.531,0,0,0,.058-.244.68.68,0,0,0-.035-.186.691.691,0,0,0-.169.046c-.1.058-.2.139-.314.192a.29.29,0,0,1-.442-.134.581.581,0,0,1,.192-.826.943.943,0,0,1,1.244.116,1.285,1.285,0,0,0,.146.11l.052-.035a2.174,2.174,0,0,0-.082-.267.343.343,0,0,1,.1-.447.581.581,0,0,0,.244-.581.4.4,0,0,1,.331-.447c0-.221.075-.262.3-.273.093,0,.186-.1.308-.174l-.2-.116c-.134-.075-.146-.139,0-.244s.174-.128.3-.215l-.733-.5h-.029a1.087,1.087,0,0,1-.581-.128c-.139-.046-.18,0-.162.139a3.488,3.488,0,0,1,.046.349c0,.169-.082.221-.221.134l-.581-.366c-.093-.058-.082-.116,0-.18h0C129.653,198.42,129.874,198.367,129.874,198.094Zm.68-.854a.349.349,0,0,0-.3.169c-.075.1-.046.2.082.21a1.51,1.51,0,0,1,.889.413,4.423,4.423,0,0,0,.534.326h.162a.657.657,0,0,0,0-.157,1.506,1.506,0,0,1-.139-.32.5.5,0,0,0-.372-.442c-.291-.082-.576-.135-.855-.2Zm-.326,1.116a3.447,3.447,0,0,0,.395.046c.058,0,.169-.046.169-.07a.29.29,0,0,0-.082-.2,1.781,1.781,0,0,0-.395-.226,1.435,1.435,0,0,0-.622-.046c.128.151.279.123.406.151C130.327,198.054,130.364,198.135,130.228,198.356Zm-.087,3.906c.058.046.07.064.082.064a2.073,2.073,0,0,1,.8.285.581.581,0,0,0,.651-.064c-.075,0-.162-.075-.221-.046-.192.1-.326,0-.482-.093a4.072,4.072,0,0,0-.581-.2c-.059-.023-.139.023-.25.052Zm-.511-4.61a.47.47,0,0,0,.524-.157c.058-.1,0-.169-.093-.169h-.134c-.186.035-.2.21-.3.326Z" transform="translate(-124.557 -197.239)" fill="#ef1d26"/>
        <path id="Path_17" data-name="Path 17" d="M134.16,205.84c.11,0,.192-.07.256-.052a4.066,4.066,0,0,1,.581.2c.157.07.29.186.482.093a.419.419,0,0,1,.221.046.581.581,0,0,1-.651.064,2.075,2.075,0,0,0-.8-.285S134.212,205.905,134.16,205.84Z" transform="translate(-128.576 -200.817)" fill="#ef1d26"/>
        <path id="Path_10912" data-name="Path 10912" d="M15.062,2.071A16.8,16.8,0,0,1,8.252.762,11.629,11.629,0,0,1,3.538-2.826,9.438,9.438,0,0,1,1.6-7.933h8.852a3.4,3.4,0,0,0,1.414,2.462,5,5,0,0,0,3.09.943,4.41,4.41,0,0,0,2.593-.655,2.005,2.005,0,0,0,.917-1.7,1.964,1.964,0,0,0-1.31-1.86,26.455,26.455,0,0,0-4.243-1.336,39.834,39.834,0,0,1-5.238-1.545,9.05,9.05,0,0,1-3.614-2.567,7,7,0,0,1-1.519-4.74,8.049,8.049,0,0,1,1.388-4.583A9.346,9.346,0,0,1,8.017-26.79,15.645,15.645,0,0,1,14.433-28q5.5,0,8.669,2.724a10.6,10.6,0,0,1,3.64,7.229H18.467a3.562,3.562,0,0,0-1.336-2.41,4.633,4.633,0,0,0-2.96-.89,4.092,4.092,0,0,0-2.41.6,1.923,1.923,0,0,0-.838,1.65A2.015,2.015,0,0,0,12.26-17.2a21.393,21.393,0,0,0,4.164,1.257,45.557,45.557,0,0,1,5.29,1.65A9.126,9.126,0,0,1,25.3-11.679a7.411,7.411,0,0,1,1.6,4.845A7.691,7.691,0,0,1,25.46-2.25,9.527,9.527,0,0,1,21.321.919a15.825,15.825,0,0,1-6.26,1.152ZM48.691-5.943v7.6H44.133q-4.871,0-7.6-2.383T33.814-8.509V-20.138H30.252v-7.438h3.562V-34.7h8.957v7.124h5.867v7.438H42.771V-8.4A2.455,2.455,0,0,0,43.4-6.519a3.068,3.068,0,0,0,2.1.576Zm3.2-7.071a17.469,17.469,0,0,1,1.7-7.91,12.7,12.7,0,0,1,4.636-5.238A12.1,12.1,0,0,1,64.772-28a11.248,11.248,0,0,1,5.421,1.257,9.261,9.261,0,0,1,3.588,3.3v-4.138h8.957V1.652H73.781V-2.486a9.673,9.673,0,0,1-3.64,3.3,11.248,11.248,0,0,1-5.421,1.257,11.885,11.885,0,0,1-6.5-1.86,12.85,12.85,0,0,1-4.636-5.29,17.635,17.635,0,0,1-1.7-7.936Zm21.9.052a7.323,7.323,0,0,0-1.86-5.29,6.042,6.042,0,0,0-4.531-1.938,6.076,6.076,0,0,0-4.531,1.912A7.229,7.229,0,0,0,61-13.014,7.417,7.417,0,0,0,62.86-7.7a6,6,0,0,0,4.531,1.964,6.042,6.042,0,0,0,4.531-1.938A7.323,7.323,0,0,0,73.781-12.962Z" transform="translate(43.273 40.825)" fill="#fff"/>
        <path id="Union_6" data-name="Union 6" d="M-5816.979-4080.677H-5817v-18.307h9.073v18.307h-.006s-.133,4.3,3.046,4.411c3.58.129,3.4-4.021,3.4-4.021h.01v-3.365l.006-.009v-2.972s-.2-9.41,7.265-11.687a26.222,26.222,0,0,1,5.734-.652l.043-.022c11.921,0,11.7,8.21,11.7,8.21v2.609l-.029-.02v18.554a.234.234,0,0,1-.185.237h-8.717c-.129,0-.129-.113-.129-.243v-17.914s-.133-3.488-3.435-3.226a3.178,3.178,0,0,0-2.806,2.487c-.091.319-.167.655-.229,1a7.254,7.254,0,0,0-.085,1.234v5.178c.022.191.035.3.035.3l-.063.043c-.073,1.833-.994,10.829-11.821,11.3-.274.01-.545.017-.808.017C-5815.68-4069.227-5816.916-4078.8-5816.979-4080.677Z" transform="translate(5818.074 4112.154)" fill="#fff"/>
        <rect id="Rectangle_5" data-name="Rectangle 5" width="9.049" height="29.593" transform="translate(133.256 13.165)" fill="#ef1d26"/>
        <path id="Union_11" data-name="Union 11" d="M-3547.667,203.7v-22.08L-3555,181.6V174h24.236v7.672l-7.857-.023V203.7Z" transform="translate(3700.625 -160.835)" fill="#ef1d26"/>
      </g>
    </g>
    <path id="Path_43315" data-name="Path 43315" d="M7.908-6.435a2.822,2.822,0,0,0-1.1-1.228A3.168,3.168,0,0,0,5.136-8.1a3.413,3.413,0,0,0-1.72.435,3.085,3.085,0,0,0-1.2,1.248,3.9,3.9,0,0,0-.438,1.878,3.859,3.859,0,0,0,.438,1.872,3.1,3.1,0,0,0,1.2,1.242,3.413,3.413,0,0,0,1.72.436,3.121,3.121,0,0,0,2.2-.793A3.265,3.265,0,0,0,8.339-3.926H4.7v-.962h4.9v.91A4.482,4.482,0,0,1,8.9-1.931,4.354,4.354,0,0,1,7.319-.462a4.454,4.454,0,0,1-2.184.54A4.62,4.62,0,0,1,2.821-.514,4.356,4.356,0,0,1,1.167-2.158,4.67,4.67,0,0,1,.559-4.537a4.706,4.706,0,0,1,.608-2.386A4.343,4.343,0,0,1,2.821-8.573a4.62,4.62,0,0,1,2.314-.592,4.665,4.665,0,0,1,2.569.715A4.1,4.1,0,0,1,9.333-6.435ZM14.067-8.1V-5.07h3.321V-4.1H14.067v3.12H17.78V0h-4.9V-9.074h4.9V-8.1ZM28.45,0H27.26L22.475-7.215V0h-1.19V-9.074h1.19l4.786,7.2v-7.2h1.19Zm37.1-9.061V-8.1H63.063V0h-1.19V-8.1h-2.5v-.962ZM69.9-8.1V-5.07h3.321V-4.1H69.9v3.12h3.714V0h-4.9V-9.074h4.9V-8.1Zm6.773,3.562a4.746,4.746,0,0,1,.6-2.386A4.356,4.356,0,0,1,78.918-8.58a4.545,4.545,0,0,1,2.308-.6,4.7,4.7,0,0,1,2.6.715,4.1,4.1,0,0,1,1.621,2.028H84.024A2.85,2.85,0,0,0,82.932-7.7a3.173,3.173,0,0,0-1.706-.442,3.339,3.339,0,0,0-1.713.442,3.1,3.1,0,0,0-1.19,1.254,4,4,0,0,0-.432,1.9,3.974,3.974,0,0,0,.432,1.892,3.1,3.1,0,0,0,1.19,1.254,3.339,3.339,0,0,0,1.713.442,3.21,3.21,0,0,0,1.706-.436,2.81,2.81,0,0,0,1.092-1.255h1.425A4.072,4.072,0,0,1,83.828-.631a4.736,4.736,0,0,1-2.6.709,4.584,4.584,0,0,1-2.308-.592,4.322,4.322,0,0,1-1.641-1.644A4.71,4.71,0,0,1,76.675-4.537ZM95.936-9.061V0h-1.19V-4.108H90.1V0h-1.19V-9.061H90.1v3.978h4.642V-9.061ZM106.828,0h-1.19l-4.786-7.215V0h-1.19V-9.074h1.19l4.786,7.2v-7.2h1.19Zm7.859.091A4.62,4.62,0,0,1,112.373-.5a4.342,4.342,0,0,1-1.654-1.651,4.706,4.706,0,0,1-.608-2.385,4.706,4.706,0,0,1,.608-2.386,4.342,4.342,0,0,1,1.654-1.651,4.62,4.62,0,0,1,2.314-.592,4.646,4.646,0,0,1,2.328.592,4.309,4.309,0,0,1,1.648,1.644,4.736,4.736,0,0,1,.6,2.392,4.736,4.736,0,0,1-.6,2.392A4.309,4.309,0,0,1,117.015-.5,4.646,4.646,0,0,1,114.687.091Zm0-1.027a3.374,3.374,0,0,0,1.719-.442,3.119,3.119,0,0,0,1.2-1.261,3.964,3.964,0,0,0,.438-1.9,3.954,3.954,0,0,0-.438-1.9,3.142,3.142,0,0,0-1.2-1.254,3.364,3.364,0,0,0-1.726-.442,3.364,3.364,0,0,0-1.726.442,3.143,3.143,0,0,0-1.2,1.254,3.954,3.954,0,0,0-.438,1.9,3.964,3.964,0,0,0,.438,1.9,3.119,3.119,0,0,0,1.2,1.261A3.374,3.374,0,0,0,114.687-.936Zm7.4-3.6a4.746,4.746,0,0,1,.6-2.386,4.356,4.356,0,0,1,1.641-1.657,4.545,4.545,0,0,1,2.308-.6,4.7,4.7,0,0,1,2.6.715,4.1,4.1,0,0,1,1.621,2.028h-1.425A2.85,2.85,0,0,0,128.345-7.7a3.173,3.173,0,0,0-1.706-.442,3.339,3.339,0,0,0-1.713.442,3.1,3.1,0,0,0-1.19,1.254,4,4,0,0,0-.432,1.9,3.974,3.974,0,0,0,.432,1.892,3.1,3.1,0,0,0,1.19,1.254,3.339,3.339,0,0,0,1.713.442,3.21,3.21,0,0,0,1.706-.436,2.809,2.809,0,0,0,1.092-1.255h1.425a4.072,4.072,0,0,1-1.621,2.009,4.736,4.736,0,0,1-2.6.709,4.584,4.584,0,0,1-2.308-.592,4.322,4.322,0,0,1-1.641-1.644A4.71,4.71,0,0,1,122.088-4.537ZM139.126,0l-2.171-3.705h-1.438V0h-1.19V-9.061h2.942a3.926,3.926,0,0,1,1.746.351,2.453,2.453,0,0,1,1.066.949,2.634,2.634,0,0,1,.353,1.365,2.656,2.656,0,0,1-.543,1.651,2.655,2.655,0,0,1-1.628.949L140.552,0Zm-3.609-4.654h1.752a2,2,0,0,0,1.451-.474A1.7,1.7,0,0,0,139.2-6.4a1.617,1.617,0,0,0-.477-1.248,2.085,2.085,0,0,0-1.458-.442h-1.752Zm13.848,2.639H145.39L144.658,0H143.4l3.3-9.009h1.373L151.353,0H150.1Zm-.34-.962-1.648-4.576L145.73-2.977ZM160.1-9.061V-8.1h-2.484V0h-1.19V-8.1h-2.5v-.962ZM166.155.091a3.918,3.918,0,0,1-1.615-.319,2.688,2.688,0,0,1-1.118-.884A2.256,2.256,0,0,1,163-2.418h1.268a1.657,1.657,0,0,0,.53,1.072,1.908,1.908,0,0,0,1.353.436,1.985,1.985,0,0,0,1.34-.423,1.368,1.368,0,0,0,.49-1.085,1.228,1.228,0,0,0-.288-.845,1.838,1.838,0,0,0-.719-.494,11.285,11.285,0,0,0-1.164-.364,10.291,10.291,0,0,1-1.445-.468,2.325,2.325,0,0,1-.928-.735,2.149,2.149,0,0,1-.386-1.345,2.321,2.321,0,0,1,.379-1.313,2.467,2.467,0,0,1,1.066-.884,3.771,3.771,0,0,1,1.576-.312,3.314,3.314,0,0,1,2.1.637,2.349,2.349,0,0,1,.922,1.69h-1.308a1.4,1.4,0,0,0-.549-.917,1.959,1.959,0,0,0-1.281-.4,1.864,1.864,0,0,0-1.216.384,1.306,1.306,0,0,0-.471,1.073,1.158,1.158,0,0,0,.281.806,1.813,1.813,0,0,0,.693.475q.412.162,1.157.371a10.912,10.912,0,0,1,1.451.488,2.419,2.419,0,0,1,.941.741,2.146,2.146,0,0,1,.392,1.359,2.375,2.375,0,0,1-.353,1.248,2.589,2.589,0,0,1-1.046.949A3.469,3.469,0,0,1,166.155.091Z" transform="translate(-12402.327 4529)" fill="#fff"/>
    <path id="Path_43532" data-name="Path 43532" d="M37.97-10.348l-.157,2.587h-.824l-.17-2.587Zm6.9,5.824L47.672,0H46.325L44.142-3.536,42.063,0H40.742l2.785-4.524-2.8-4.537h1.334l2.2,3.549,2.092-3.549h1.334Zm6.695-5.824-.157,2.587h-.824l-.17-2.587Z" transform="translate(-12402.328 4529.091)" fill="#fff" stroke="#fff" stroke-width="1"/>
  </g>
</svg>
